<svg xmlns="http://www.w3.org/2000/svg" viewBox="0 0 512 512"
     role="img" aria-label="Wheel of World Religions — interfaith mandala">
  <title>Wheel of World Religions</title>

  <defs>
    <radialGradient id="bg" cx="50%" cy="50%" r="50%">
      <stop offset="0%" stop-color="#2c1c06"/>
      <stop offset="100%" stop-color="#0e0902"/>
    </radialGradient>
    <radialGradient id="centerGlow" cx="50%" cy="50%" r="50%">
      <stop offset="0%" stop-color="#ffe090" stop-opacity="1"/>
      <stop offset="60%" stop-color="#c9a240" stop-opacity="0.6"/>
      <stop offset="100%" stop-color="#c9a240" stop-opacity="0"/>
    </radialGradient>
    <filter id="glow" x="-30%" y="-30%" width="160%" height="160%">
      <feGaussianBlur stdDeviation="5" result="blur"/>
      <feMerge>
        <feMergeNode in="blur"/>
        <feMergeNode in="SourceGraphic"/>
      </feMerge>
    </filter>
    <filter id="softglow" x="-20%" y="-20%" width="140%" height="140%">
      <feGaussianBlur stdDeviation="2.5" result="blur"/>
      <feMerge>
        <feMergeNode in="blur"/>
        <feMergeNode in="SourceGraphic"/>
      </feMerge>
    </filter>
  </defs>

  <!-- Background -->
  <circle cx="256" cy="256" r="256" fill="url(#bg)"/>

  <!-- Outer decorative rings -->
  <circle cx="256" cy="256" r="248" fill="none" stroke="#c9a240" stroke-width="2.5"/>
  <circle cx="256" cy="256" r="240" fill="none" stroke="#c9a240" stroke-width="0.6"
          stroke-dasharray="5 5" opacity="0.4"/>

  <!-- Subtle spoke lines from inner circle to symbol positions -->
  <g stroke="#c9a240" stroke-width="0.6" opacity="0.25">
    <!-- 8 spokes at r=78 to r=132 -->
    <line x1="256" y1="178" x2="256" y2="124"/>
    <line x1="311" y1="201" x2="367" y2="157" transform="rotate(0,256,256)"/>
    <!-- Using rotate transform for all 8 spokes -->
    <line x1="256" y1="178" x2="256" y2="124" transform="rotate(45,256,256)"/>
    <line x1="256" y1="178" x2="256" y2="124" transform="rotate(90,256,256)"/>
    <line x1="256" y1="178" x2="256" y2="124" transform="rotate(135,256,256)"/>
    <line x1="256" y1="178" x2="256" y2="124" transform="rotate(180,256,256)"/>
    <line x1="256" y1="178" x2="256" y2="124" transform="rotate(225,256,256)"/>
    <line x1="256" y1="178" x2="256" y2="124" transform="rotate(270,256,256)"/>
    <line x1="256" y1="178" x2="256" y2="124" transform="rotate(315,256,256)"/>
  </g>

  <!-- Inner circle -->
  <circle cx="256" cy="256" r="77" fill="none" stroke="#c9a240" stroke-width="1.5" opacity="0.7"/>

  <!-- Center glow wash -->
  <circle cx="256" cy="256" r="65" fill="url(#centerGlow)" opacity="0.5"/>

  <!-- Center sunburst — 8 rays -->
  <g transform="translate(256,256)" filter="url(#glow)">
    <g fill="#c9a240" opacity="0.9">
      <rect x="-1.8" y="-62" width="3.6" height="36" rx="1.8"/>
      <rect x="-1.8" y="-62" width="3.6" height="36" rx="1.8" transform="rotate(45)"/>
      <rect x="-1.8" y="-62" width="3.6" height="36" rx="1.8" transform="rotate(90)"/>
      <rect x="-1.8" y="-62" width="3.6" height="36" rx="1.8" transform="rotate(135)"/>
      <rect x="-1.8" y="-62" width="3.6" height="36" rx="1.8" transform="rotate(180)"/>
      <rect x="-1.8" y="-62" width="3.6" height="36" rx="1.8" transform="rotate(225)"/>
      <rect x="-1.8" y="-62" width="3.6" height="36" rx="1.8" transform="rotate(270)"/>
      <rect x="-1.8" y="-62" width="3.6" height="36" rx="1.8" transform="rotate(315)"/>
    </g>
    <!-- Center dot -->
    <circle r="10" fill="#c9a240"/>
    <circle r="6"  fill="#ffe090" opacity="0.9"/>
  </g>

  <!-- ═══ Religious Symbols at r=155 from center ═══ -->
  <!--
    Positions (r=155):
      0°  top          → (256, 101)   Christian Cross
      45° top-right    → (366, 146)   Star of David
      90° right        → (411, 256)   Crescent & Star
      135° bottom-right → (366, 366)  Om / Hinduism
      180° bottom      → (256, 411)   Dharma Wheel / Buddhism
      225° bottom-left  → (146, 366)  Khanda / Sikhism
      270° left        → (101, 256)   Yin-Yang / Taoism
      315° top-left    → (146, 146)   Eight-pointed star / Bahá'í
  -->
  <g font-size="52" fill="#c9a240" text-anchor="middle" dominant-baseline="central"
     filter="url(#softglow)"
     font-family="'Segoe UI Symbol','Apple Symbols','Noto Sans Symbols','Symbola',sans-serif">

    <!-- Christianity: Latin Cross ✝ -->
    <text x="256" y="104">✝</text>

    <!-- Judaism: Star of David ✡ -->
    <text x="366" y="149">✡</text>

    <!-- Islam: Star and Crescent ☪ -->
    <text x="408" y="256">☪</text>

    <!-- Hinduism: Om ॐ -->
    <text x="366" y="366"
          font-family="'Noto Sans Devanagari','Devanagari MT','Arial Unicode MS',serif"
          font-size="46">ॐ</text>

    <!-- Buddhism: Dharma Wheel ☸ -->
    <text x="256" y="410">☸</text>

    <!-- Sikhism: Khanda ☬ -->
    <text x="146" y="366">☬</text>

    <!-- Taoism / Zen: Yin-Yang ☯ -->
    <text x="104" y="256">☯</text>

    <!-- Bahá'í / Universal: Eight-pointed star ✴ -->
    <text x="146" y="149">✴</text>

  </g>

  <!-- Tradition labels — tiny, readable at full size, graceful at icon size -->
  <g font-size="9.5" fill="#c9a240" text-anchor="middle" dominant-baseline="central"
     opacity="0.5" letter-spacing="0.8"
     font-family="'Georgia','Times New Roman',serif">
    <text x="256" y="57">CHRISTIANITY</text>
    <text x="390" y="104" transform="rotate(45,390,104)">JUDAISM</text>
    <text x="455" y="256" transform="rotate(90,455,256)">ISLAM</text>
    <text x="390" y="408" transform="rotate(135,390,408)">HINDUISM</text>
    <text x="256" y="457">BUDDHISM</text>
    <text x="122" y="408" transform="rotate(-135,122,408)">SIKHISM</text>
    <text x="57"  y="256" transform="rotate(-90,57,256)">TAOISM</text>
    <text x="122" y="104" transform="rotate(-45,122,104)">BAHÁ'Í</text>
  </g>

</svg>
