<svg xmlns="http://www.w3.org/2000/svg" viewBox="0 0 64 64">
  <defs>
    <radialGradient id="fbg" cx="50%" cy="50%" r="50%">
      <stop offset="0%" stop-color="#2c1c06"/>
      <stop offset="100%" stop-color="#0e0902"/>
    </radialGradient>
  </defs>
  <!-- Background -->
  <circle cx="32" cy="32" r="32" fill="url(#fbg)"/>
  <!-- Outer ring -->
  <circle cx="32" cy="32" r="30.5" fill="none" stroke="#c9a240" stroke-width="1.5"/>
  <!-- Inner ring -->
  <circle cx="32" cy="32" r="10" fill="none" stroke="#c9a240" stroke-width="0.8" opacity="0.7"/>
  <!-- 8 spokes -->
  <g stroke="#c9a240" stroke-width="0.5" opacity="0.3">
    <line x1="32" y1="22" x2="32" y2="12" transform="rotate(0,32,32)"/>
    <line x1="32" y1="22" x2="32" y2="12" transform="rotate(45,32,32)"/>
    <line x1="32" y1="22" x2="32" y2="12" transform="rotate(90,32,32)"/>
    <line x1="32" y1="22" x2="32" y2="12" transform="rotate(135,32,32)"/>
    <line x1="32" y1="22" x2="32" y2="12" transform="rotate(180,32,32)"/>
    <line x1="32" y1="22" x2="32" y2="12" transform="rotate(225,32,32)"/>
    <line x1="32" y1="22" x2="32" y2="12" transform="rotate(270,32,32)"/>
    <line x1="32" y1="22" x2="32" y2="12" transform="rotate(315,32,32)"/>
  </g>
  <!-- Center sunburst -->
  <g transform="translate(32,32)" fill="#c9a240">
    <rect x="-0.8" y="-8" width="1.6" height="5" rx="0.8"/>
    <rect x="-0.8" y="-8" width="1.6" height="5" rx="0.8" transform="rotate(45)"/>
    <rect x="-0.8" y="-8" width="1.6" height="5" rx="0.8" transform="rotate(90)"/>
    <rect x="-0.8" y="-8" width="1.6" height="5" rx="0.8" transform="rotate(135)"/>
    <rect x="-0.8" y="-8" width="1.6" height="5" rx="0.8" transform="rotate(180)"/>
    <rect x="-0.8" y="-8" width="1.6" height="5" rx="0.8" transform="rotate(225)"/>
    <rect x="-0.8" y="-8" width="1.6" height="5" rx="0.8" transform="rotate(270)"/>
    <rect x="-0.8" y="-8" width="1.6" height="5" rx="0.8" transform="rotate(315)"/>
    <circle r="2.5" fill="#c9a240"/>
    <circle r="1.4" fill="#ffe090" opacity="0.9"/>
  </g>
  <!-- 8 symbols at r=19 — tiny but visible at 64px, reads as textured ring at 16px -->
  <g font-size="7" fill="#c9a240" text-anchor="middle" dominant-baseline="central"
     font-family="'Segoe UI Symbol','Apple Symbols','Noto Sans Symbols',sans-serif">
    <text x="32"  y="13">✝</text>
    <text x="45.4" y="18.6">✡</text>
    <text x="51"  y="32">☪</text>
    <text x="45.4" y="45.4">ॐ</text>
    <text x="32"  y="51">☸</text>
    <text x="18.6" y="45.4">☬</text>
    <text x="13"  y="32">☯</text>
    <text x="18.6" y="18.6">✴</text>
  </g>
</svg>
